<svg width="50" height="50" viewBox="0 0 50 50" fill="none" xmlns="http://www.w3.org/2000/svg">
<path fill-rule="evenodd" clip-rule="evenodd" d="M4.79102 5.91504H12.0882H13.7961L14.1311 7.5228L15.0838 12.0962H43.4231H45.8823L45.4781 14.425L43.3319 26.7872L43.0417 28.4584H41.2769H18.4927L19.3763 32.7H41.2769V36.7H17.6684H15.9605L15.6255 35.0922L11.333 14.4884L10.3803 9.91504H4.79102V5.91504ZM15.9172 16.0962L17.6593 24.4584H39.5121L40.9638 16.0962H15.9172ZM23.2829 41.6778C23.2829 43.5186 21.7325 45.007 19.815 45.007C17.8974 45.007 16.347 43.5186 16.347 41.6778C16.347 39.837 17.8974 38.3876 19.815 38.3876C21.7325 38.3876 23.2829 39.837 23.2829 41.6778ZM36.9863 45.007C38.9038 45.007 40.4542 43.5186 40.4542 41.6778C40.4542 39.837 38.9038 38.3876 36.9863 38.3876C35.0686 38.3876 33.5181 39.837 33.5181 41.6778C33.5181 43.5186 35.0686 45.007 36.9863 45.007Z"
 fill="black"/>
</svg>
