<svg width="50" height="50" viewBox="0 0 50 50" fill="none" xmlns="http://www.w3.org/2000/svg">
<path fill-rule="evenodd" clip-rule="evenodd" d="M6.30835 10.9545C10.2978 7.12455 16.7443 7.12455 20.7338 10.9545L25.0002 15.0503L29.2666 10.9545C33.2562 7.12455 39.7027 7.12455 43.6923 10.9545C47.6816 14.7844 47.6816 20.973 43.6923 24.803L25.0002 42.7472L6.30835 24.803C2.31885 20.973 2.31885 14.7844 6.30835 10.9545ZM17.7875 13.7829C15.4252 11.5151 11.617 11.5151 9.25462 13.7829C6.89231 16.0507 6.89231 19.7067 9.25462 21.9746L25.0002 37.0904L40.746 21.9746C43.1083 19.7067 43.1083 16.0507 40.746 13.7829C38.3837 11.5151 34.5754 11.5151 32.2131 13.7829L25.0002 20.7072L17.7875 13.7829Z" fill="#FF0000"/>
</svg>
